<mxfile host="app.diagrams.net" modified="2022-10-18T13:08:16.527Z" agent="5.0 (Windows NT 10.0; Win64; x64) AppleWebKit/537.36 (KHTML, like Gecko) Chrome/105.0.0.0 Safari/537.36" etag="4eM4pF4ssi6BZ_68cMnl" version="20.4.1" type="github">
  <diagram id="urghhO5BqInDsbTFUduO" name="第 1 页">
    <mxGraphModel dx="948" dy="533" grid="1" gridSize="10" guides="1" tooltips="1" connect="1" arrows="1" fold="1" page="1" pageScale="1" pageWidth="827" pageHeight="1169" math="0" shadow="0">
      <root>
        <mxCell id="0" />
        <mxCell id="1" parent="0" />
        <mxCell id="zsddK54KPpr8KLgIHo_c-1" value="&lt;font style=&quot;font-size: 11px;&quot;&gt;工具类&lt;/font&gt;" style="verticalAlign=top;align=left;spacingTop=8;spacingLeft=2;spacingRight=12;shape=cube;size=10;direction=south;fontStyle=4;html=1;" vertex="1" parent="1">
          <mxGeometry x="30" y="260" width="110" height="70" as="geometry" />
        </mxCell>
        <mxCell id="zsddK54KPpr8KLgIHo_c-2" value="UPK IDE" style="rounded=0;whiteSpace=wrap;html=1;fontSize=11;" vertex="1" parent="1">
          <mxGeometry x="50" y="300" width="60" height="20" as="geometry" />
        </mxCell>
        <mxCell id="zsddK54KPpr8KLgIHo_c-4" value="" style="ellipse;shape=cloud;whiteSpace=wrap;html=1;fontSize=11;" vertex="1" parent="1">
          <mxGeometry x="210" y="80" width="220" height="175" as="geometry" />
        </mxCell>
        <mxCell id="zsddK54KPpr8KLgIHo_c-5" value="云" style="text;html=1;strokeColor=none;fillColor=none;align=center;verticalAlign=middle;whiteSpace=wrap;rounded=0;fontSize=11;" vertex="1" parent="1">
          <mxGeometry x="290" y="100" width="60" height="30" as="geometry" />
        </mxCell>
        <mxCell id="zsddK54KPpr8KLgIHo_c-6" value="" style="rounded=0;whiteSpace=wrap;html=1;fontSize=13;" vertex="1" parent="1">
          <mxGeometry x="270" y="130" width="110" height="90" as="geometry" />
        </mxCell>
        <mxCell id="zsddK54KPpr8KLgIHo_c-7" value="服务开放平台" style="text;html=1;strokeColor=none;fillColor=none;align=center;verticalAlign=middle;whiteSpace=wrap;rounded=0;fontSize=13;" vertex="1" parent="1">
          <mxGeometry x="285" y="130" width="80" height="30" as="geometry" />
        </mxCell>
        <mxCell id="zsddK54KPpr8KLgIHo_c-8" value="服务市场" style="rounded=0;whiteSpace=wrap;html=1;fontSize=13;" vertex="1" parent="1">
          <mxGeometry x="280" y="157.5" width="90" height="20" as="geometry" />
        </mxCell>
        <mxCell id="zsddK54KPpr8KLgIHo_c-9" value="服务仓库" style="rounded=0;whiteSpace=wrap;html=1;fontSize=13;" vertex="1" parent="1">
          <mxGeometry x="280" y="190" width="90" height="20" as="geometry" />
        </mxCell>
        <mxCell id="zsddK54KPpr8KLgIHo_c-11" value="" style="endArrow=classic;html=1;rounded=0;fontSize=13;exitX=1;exitY=0.5;exitDx=0;exitDy=0;entryX=0.273;entryY=0.514;entryDx=0;entryDy=0;entryPerimeter=0;" edge="1" parent="1" source="zsddK54KPpr8KLgIHo_c-2" target="zsddK54KPpr8KLgIHo_c-4">
          <mxGeometry width="50" height="50" relative="1" as="geometry">
            <mxPoint x="150" y="320" as="sourcePoint" />
            <mxPoint x="200" y="270" as="targetPoint" />
          </mxGeometry>
        </mxCell>
        <mxCell id="zsddK54KPpr8KLgIHo_c-13" value="HTTP" style="text;html=1;strokeColor=none;fillColor=none;align=center;verticalAlign=middle;whiteSpace=wrap;rounded=0;fontSize=13;" vertex="1" parent="1">
          <mxGeometry x="150" y="210" width="60" height="30" as="geometry" />
        </mxCell>
        <mxCell id="zsddK54KPpr8KLgIHo_c-15" value="设备端" style="verticalAlign=top;align=left;spacingTop=8;spacingLeft=2;spacingRight=12;shape=cube;size=10;direction=south;fontStyle=4;html=1;fontSize=13;" vertex="1" parent="1">
          <mxGeometry x="230" y="330" width="520" height="390" as="geometry" />
        </mxCell>
      </root>
    </mxGraphModel>
  </diagram>
</mxfile>
